# xmcd
#
# Track frame offsets:
#	150
#	18206
#	42268
#	62146
#	84163
#	103410
#	124586
#	150043
#	168403
#	191249
#	211085
#	231873
#	253569
#	271194
#	300876
#	317343
#	338065
#
# Disc length: 4762 seconds
#
# Revision: 0
# Processed by: cddbd v1.5.2PL0 Copyright (c) Steve Scherf et al.
# Submitted via: dBpowerAMP V4.0
#
DISCID=cd129811
DTITLE=alan music - alan old school
DYEAR=1900
DGENRE=
TTITLE0=love
TTITLE1=lll
TTITLE2=lo
TTITLE3=lo
TTITLE4=lo
TTITLE5=lo
TTITLE6=lo
TTITLE7=lo
TTITLE8=lo
TTITLE9=lo
TTITLE10=lo
TTITLE11=lo
TTITLE12=lo
TTITLE13=lo
TTITLE14=lo
TTITLE15=lo
TTITLE16=lo
EXTD=alan music
EXTT0=
EXTT1=
EXTT2=
EXTT3=
EXTT4=
EXTT5=
EXTT6=
EXTT7=
EXTT8=
EXTT9=
EXTT10=
EXTT11=
EXTT12=
EXTT13=
EXTT14=
EXTT15=
EXTT16=
PLAYORDER=
